<svg width="82" height="89" viewBox="0 0 82 89" fill="none" xmlns="http://www.w3.org/2000/svg">
<path fill-rule="evenodd" clip-rule="evenodd" d="M41 74C53.1503 74 63 64.1503 63 52C63 39.8497 53.1503 30 41 30C28.8497 30 19 39.8497 19 52C19 64.1503 28.8497 74 41 74Z" fill="black" fill-opacity="0.01"/>
<path fill-rule="evenodd" clip-rule="evenodd" d="M41 74C57.5685 74 71 60.5685 71 44C71 27.4315 57.5685 14 41 14C24.4315 14 11 27.4315 11 44C11 60.5685 24.4315 74 41 74Z" fill="#2196F3"/>
<path d="M69 44C69 59.464 56.464 72 41 72C25.536 72 13 59.464 13 44C13 28.536 25.536 16 41 16C56.464 16 69 28.536 69 44Z" stroke="#42A5F5" stroke-width="4"/>
<mask id="mask0" mask-type="alpha" maskUnits="userSpaceOnUse" x="11" y="14" width="60" height="60">
<path fill-rule="evenodd" clip-rule="evenodd" d="M41 74C57.5685 74 71 60.5685 71 44C71 27.4315 57.5685 14 41 14C24.4315 14 11 27.4315 11 44C11 60.5685 24.4315 74 41 74Z" fill="white"/>
</mask>
<g mask="url(#mask0)">
<path d="M13.714 36.875H67.536" stroke="#42A5F5" stroke-width="4" stroke-linecap="square"/>
<path d="M13.714 52.625H67.536" stroke="#42A5F5" stroke-width="4" stroke-linecap="square"/>
<path d="M40.25 18.5C40.25 18.5 30.2878 30.0775 30.5035 44.75C30.7191 59.4225 40.25 69.5 40.25 69.5" stroke="#42A5F5" stroke-width="4" stroke-linecap="round" stroke-linejoin="round"/>
<path d="M41 18.5C41 18.5 50.9622 30.0775 50.7465 44.75C50.5309 59.4225 41 69.5 41 69.5" stroke="#42A5F5" stroke-width="4" stroke-linecap="round" stroke-linejoin="round"/>
<path fill-rule="evenodd" clip-rule="evenodd" d="M51.1946 33.0279C51.3946 32.9124 51.6151 32.8407 51.8456 32.8262C52.8621 32.7622 55.798 32.6781 56.4347 33.781C57.0715 34.8839 55.5298 37.3838 54.966 38.2315C54.8383 38.4236 54.666 38.5785 54.4662 38.6939L48.3904 42.2017L49.2343 59.3021C49.2461 59.5415 49.125 59.768 48.9193 59.8912L47.67 60.6394C47.5055 60.738 47.3057 60.7587 47.1244 60.6961L46.1776 60.3691C46.019 60.3144 45.8877 60.2003 45.8114 60.0509L39.3534 47.4193L32.9843 51.0965L32.2974 55.7679C32.2498 56.0913 31.9693 56.3289 31.6426 56.3227L31.1446 56.3133C30.8927 56.3085 30.6663 56.1584 30.5638 55.9283L28.7741 51.9123C27.5439 51.9516 26.3891 51.8307 26.0792 51.2941C25.7697 50.758 26.2429 49.7022 26.893 48.6612L24.3295 45.1302C24.1815 44.9264 24.1648 44.6553 24.2866 44.4348L24.5274 43.9988C24.6854 43.7127 25.0314 43.5887 25.3352 43.7091L29.6974 45.4393L36.0779 41.7556L28.4192 29.9268C28.328 29.7859 28.2948 29.6153 28.3267 29.4505L28.517 28.467C28.5534 28.2787 28.6712 28.1161 28.8389 28.0229L30.1115 27.3151C30.321 27.1985 30.5777 27.2069 30.7791 27.3369L45.0768 36.56L51.1946 33.0279Z" fill="white"/>
</g>
<mask id="mask1" mask-type="alpha" maskUnits="userSpaceOnUse" x="24" y="27" width="33" height="34">
<path fill-rule="evenodd" clip-rule="evenodd" d="M51.1946 33.0279C51.3946 32.9124 51.6151 32.8407 51.8456 32.8262C52.8621 32.7622 55.798 32.6781 56.4347 33.781C57.0715 34.8839 55.5298 37.3838 54.966 38.2315C54.8383 38.4236 54.666 38.5785 54.4662 38.6939L48.3904 42.2017L49.2343 59.3021C49.2461 59.5415 49.125 59.768 48.9193 59.8912L47.67 60.6394C47.5055 60.738 47.3057 60.7587 47.1244 60.6961L46.1776 60.3691C46.019 60.3144 45.8877 60.2003 45.8114 60.0509L39.3534 47.4193L32.9843 51.0965L32.2974 55.7679C32.2498 56.0913 31.9693 56.3289 31.6426 56.3227L31.1446 56.3133C30.8927 56.3085 30.6663 56.1584 30.5638 55.9283L28.7741 51.9123C27.5439 51.9516 26.3891 51.8307 26.0792 51.2941C25.7697 50.758 26.2429 49.7022 26.893 48.6612L24.3295 45.1302C24.1815 44.9264 24.1648 44.6553 24.2866 44.4348L24.5274 43.9988C24.6854 43.7127 25.0314 43.5887 25.3352 43.7091L29.6974 45.4393L36.0779 41.7556L28.4192 29.9268C28.328 29.7859 28.2948 29.6153 28.3267 29.4505L28.517 28.467C28.5534 28.2787 28.6712 28.1161 28.8389 28.0229L30.1115 27.3151C30.321 27.1985 30.5777 27.2069 30.7791 27.3369L45.0768 36.56L51.1946 33.0279Z" fill="white"/>
</mask>
<g mask="url(#mask1)">
<path d="M46.1903 35.9172L45.536 34.7839L34.79 40.9881L35.4443 42.1214L46.1903 35.9172Z" fill="#EBECF2"/>
<path fill-rule="evenodd" clip-rule="evenodd" d="M48.9193 59.8913C49.125 59.7681 49.2461 59.5417 49.2343 59.3022L48.3628 41.6428L39.1264 46.9754L45.8114 60.051C45.8877 60.2004 46.019 60.3145 46.1776 60.3692L47.1244 60.6962C47.3057 60.7589 47.5055 60.7381 47.67 60.6395L48.9193 59.8913Z" fill="#DEE1E3"/>
<path opacity="0.4" fill-rule="evenodd" clip-rule="evenodd" d="M28.8366 51.8014L28.7476 51.8528L30.5638 55.9283C30.6664 56.1585 30.8927 56.3085 31.1446 56.3133L31.6426 56.3227C31.9693 56.3289 32.2498 56.0913 32.2974 55.7679L33.023 50.8335L32.56 51.1008C32.4167 51.1835 32.2626 51.2453 32.1011 51.2814C31.5509 51.4042 30.1547 51.6952 28.8366 51.8014Z" fill="#DEE1E3"/>
<path fill-rule="evenodd" clip-rule="evenodd" d="M39.2482 47.2134L48.3776 41.9426L48.4769 43.9539L40.956 50.5538L39.2482 47.2134Z" fill="#C5C6CC"/>
<path fill-rule="evenodd" clip-rule="evenodd" d="M57.4822 36.9525L27.6913 54.1524C27.6913 54.1524 26.8122 52.5637 26.0792 51.294C26.0703 51.2787 26.062 51.2631 26.0541 51.2474C27.4056 51.3451 30.1268 51.2352 32.766 49.7115L53.3906 37.8039C55.6822 36.4808 56.2435 34.7675 56.5526 34.031C57.0311 35.3161 57.4822 36.9525 57.4822 36.9525Z" fill="#DEE1E3"/>
</g>
</svg>
